<?xml version="1.0" encoding="utf-8"?>
<!-- Generator: Adobe Illustrator 16.0.3, SVG Export Plug-In . SVG Version: 6.00 Build 0)  -->
<!DOCTYPE svg PUBLIC "-//W3C//DTD SVG 1.1//EN" "http://www.w3.org/Graphics/SVG/1.1/DTD/svg11.dtd">
<svg version="1.1" id="Layer_1" xmlns="http://www.w3.org/2000/svg" xmlns:xlink="http://www.w3.org/1999/xlink" x="0px" y="0px"
	 width="755.983px" height="180px" viewBox="0 0 755.983 180" enable-background="new 0 0 755.983 180" xml:space="preserve">
<g>
	<path fill="#ED1C24" stroke="#000000" stroke-width="7" stroke-miterlimit="10" d="M172.668,61c0,24.854-19.588,45-43.75,45
		s-43.75-20.146-43.75-45c0-13.992,13.621-37.193,32.813-55c7.477,6.939,14.078,14.379,19.402,21.713
		c3.25-3.98,6.918-7.943,10.98-11.713C162.516,29.137,172.668,50.596,172.668,61z"/>
	<path fill="#F7941E" d="M151.09,52.568c-0.656-1.254-1.393-2.563-2.201-3.9L137.438,61.73c0,0-17.949-22.922-19.303-24.48
		c-9.469,11.352-14.217,17.996-14.217,25.537c0,15.139,11.467,24.463,25.559,24.463c5.637,0,10.854-1.756,15.084-4.717
		C154.178,75.805,156.432,62.762,151.09,52.568z"/>
</g>
<g>
	<path fill="#414042" d="M90.002,135c0,24.854-20.145,45-45.001,45c-0.105,0-0.214,0-0.319-0.002
		c-24.716-0.17-44.807-20.518-44.681-45.231c0.058-11.321,4.299-21.649,11.25-29.528V33.75C11.251,15.112,26.361,0,45.001,0
		c18.641,0,33.75,15.112,33.75,33.75v71.488C85.75,113.171,90.002,123.588,90.002,135z"/>
	<path fill="#FFFFFF" d="M61.876,111.619V33.75c0-9.304-7.569-16.875-16.875-16.875S28.126,24.446,28.126,33.75v77.869
		c-4.476,5.073-11.188,11.285-11.25,23.233c-0.077,15.425,12.504,28.165,27.923,28.272h0.202c15.508,0,28.126-12.618,28.126-28.125
		C73.127,122.927,66.316,116.652,61.876,111.619z"/>
	<path fill="#ED1C24" d="M45.001,157.5c-12.426,0-22.499-10.074-22.499-22.5c0-8.326,4.525-15.59,11.249-19.481V56.25
		c0-6.213,5.038-11.25,11.25-11.25s11.251,5.037,11.251,11.25v59.269c6.724,3.892,11.249,11.155,11.249,19.481
		C67.501,147.426,57.427,157.5,45.001,157.5z"/>
</g>
<g>
	<path d="M187.662,180v-31.721h21.902V32.35h-21.902V0h84.588v32.35h-18.378v38.392h47.706V32.35H283.83V0h83.958v32.35h-21.902
		v115.93h21.902V180H283.83v-31.721h17.748v-47.832h-47.706v47.832h18.378V180H187.662z"/>
	<path d="M485.606,0c30.21,0,53.979,8.729,71.308,26.182C574.241,43.637,582.907,64.91,582.907,90
		c0,25.175-8.686,46.469-26.057,63.881C539.48,171.295,515.731,180,485.606,180c-31.302,0-55.343-8.956-72.126-26.874
		C396.695,135.21,388.306,114.168,388.306,90c0-25.006,8.622-46.259,25.867-63.755C431.417,8.748,455.227,0,485.606,0z
		 M485.606,31.972c-13.427,0-24.818,5.035-34.175,15.105c-9.358,10.07-14.035,24.84-14.035,44.308
		c0,17.203,4.613,30.965,13.846,41.286c9.23,10.322,20.686,15.483,34.364,15.483c13.425,0,24.839-5.055,34.237-15.168
		c9.397-10.112,14.098-24.691,14.098-43.741c0-17.034-4.489-30.839-13.468-41.413C511.492,37.259,499.871,31.972,485.606,31.972z"/>
	<path d="M627.341,180v-29.58h26.308V29.581h-26.308v36.612h-30.084V0h158.727v66.192h-29.706V29.581h-27.063V150.42h26.308V180
		H627.341z"/>
</g>
<rect x="179.664" y="2.849" fill="none" width="589.471" height="181.646"/>
<text transform="matrix(1 0 0 1 179.6641 179.3848)" display="none" font-family="'Rockwell-Bold'" font-size="260">HO</text>
</svg>
